# MagicaVoxel @ Ephtracy

# group
o 

# material
mtllib Stairs.mtl
usemtl palette

# normals
vn -1 0 0
vn 1 0 0
vn 0 0 1
vn 0 0 -1
vn 0 -1 0
vn 0 1 0

# texcoords
vt 0.970703 0.5
vt 0.974609 0.5

# verts
v -1.4 0 1.4
v -1.4 0 1.3
v -1.4 0 -1.3
v -1.4 0 -1.4
v -1.4 0.4 1.4
v -1.4 0.4 1.3
v -1.4 0.4 -1.3
v -1.4 0.4 -1.4
v -1 0.4 1.4
v -1 0.4 1.3
v -1 0.4 -1.3
v -1 0.4 -1.4
v -1 0.8 1.4
v -1 0.8 1.3
v -1 0.8 -1.3
v -1 0.8 -1.4
v -0.6 0.8 1.4
v -0.6 0.8 1.3
v -0.6 0.8 -1.3
v -0.6 0.8 -1.4
v -0.6 1.2 1.4
v -0.6 1.2 1.3
v -0.6 1.2 -1.3
v -0.6 1.2 -1.4
v -0.2 1.2 1.4
v -0.2 1.2 1.3
v -0.2 1.2 -1.3
v -0.2 1.2 -1.4
v -0.2 1.6 1.4
v -0.2 1.6 1.3
v -0.2 1.6 -1.3
v -0.2 1.6 -1.4
v 0.2 1.6 1.4
v 0.2 1.6 1.3
v 0.2 1.6 -1.3
v 0.2 1.6 -1.4
v 0.2 2 1.4
v 0.2 2 1.3
v 0.2 2 -1.3
v 0.2 2 -1.4
v 0.6 2 1.4
v 0.6 2 1.3
v 0.6 2 -1.3
v 0.6 2 -1.4
v 0.6 2.4 1.4
v 0.6 2.4 1.3
v 0.6 2.4 -1.3
v 0.6 2.4 -1.4
v 1 2.4 1.4
v 1 2.4 1.3
v 1 2.4 -1.3
v 1 2.4 -1.4
v 1 2.8 1.4
v 1 2.8 1.3
v 1 2.8 -1.3
v 1 2.8 -1.4
v 1.4 0 1.4
v 1.4 0 -1.4
v 1.4 2.7 1.4
v 1.4 2.7 1.3
v 1.4 2.7 -1.3
v 1.4 2.7 -1.4
v 1.4 2.8 1.4
v 1.4 2.8 1.3
v 1.4 2.8 -1.3
v 1.4 2.8 -1.4
v -1.4 0 1.4
v -1.4 0.4 1.4
v -1.3 0 1.4
v -1.3 0.3 1.4
v -1 0.4 1.4
v -1 0.8 1.4
v -0.9 0.3 1.4
v -0.9 0.7 1.4
v -0.6 0.8 1.4
v -0.6 1.2 1.4
v -0.5 0.7 1.4
v -0.5 1.1 1.4
v -0.2 1.2 1.4
v -0.2 1.6 1.4
v -0.1 1.1 1.4
v -0.1 1.5 1.4
v 0.2 1.6 1.4
v 0.2 2 1.4
v 0.3 1.5 1.4
v 0.3 1.9 1.4
v 0.6 2 1.4
v 0.6 2.4 1.4
v 0.7 1.9 1.4
v 0.7 2.3 1.4
v 1 2.4 1.4
v 1 2.8 1.4
v 1.1 2.3 1.4
v 1.1 2.7 1.4
v 1.4 0 1.4
v 1.4 2.7 1.4
v 1.4 2.8 1.4
v -1.4 0 -1.4
v -1.4 0.4 -1.4
v -1.3 0 -1.4
v -1.3 0.3 -1.4
v -1 0.4 -1.4
v -1 0.8 -1.4
v -0.9 0.3 -1.4
v -0.9 0.7 -1.4
v -0.6 0.8 -1.4
v -0.6 1.2 -1.4
v -0.5 0.7 -1.4
v -0.5 1.1 -1.4
v -0.2 1.2 -1.4
v -0.2 1.6 -1.4
v -0.1 1.1 -1.4
v -0.1 1.5 -1.4
v 0.2 1.6 -1.4
v 0.2 2 -1.4
v 0.3 1.5 -1.4
v 0.3 1.9 -1.4
v 0.6 2 -1.4
v 0.6 2.4 -1.4
v 0.7 1.9 -1.4
v 0.7 2.3 -1.4
v 1 2.4 -1.4
v 1 2.8 -1.4
v 1.1 2.3 -1.4
v 1.1 2.7 -1.4
v 1.4 0 -1.4
v 1.4 2.7 -1.4
v 1.4 2.8 -1.4
v -1.4 0 1.4
v -1.3 0 1.4
v 1.4 0 1.4
v -1.4 0 1.3
v -1.3 0 1.3
v -1.4 0 -1.3
v -1.3 0 -1.3
v -1.4 0 -1.4
v -1.3 0 -1.4
v 1.4 0 -1.4
v -1.4 0.4 1.4
v -1 0.4 1.4
v -1.4 0.4 1.3
v -1 0.4 1.3
v -1.4 0.4 -1.3
v -1 0.4 -1.3
v -1.4 0.4 -1.4
v -1 0.4 -1.4
v -1 0.8 1.4
v -0.6 0.8 1.4
v -1 0.8 1.3
v -0.6 0.8 1.3
v -1 0.8 -1.3
v -0.6 0.8 -1.3
v -1 0.8 -1.4
v -0.6 0.8 -1.4
v -0.6 1.2 1.4
v -0.2 1.2 1.4
v -0.6 1.2 1.3
v -0.2 1.2 1.3
v -0.6 1.2 -1.3
v -0.2 1.2 -1.3
v -0.6 1.2 -1.4
v -0.2 1.2 -1.4
v -0.2 1.6 1.4
v 0.2 1.6 1.4
v -0.2 1.6 1.3
v 0.2 1.6 1.3
v -0.2 1.6 -1.3
v 0.2 1.6 -1.3
v -0.2 1.6 -1.4
v 0.2 1.6 -1.4
v 0.2 2 1.4
v 0.6 2 1.4
v 0.2 2 1.3
v 0.6 2 1.3
v 0.2 2 -1.3
v 0.6 2 -1.3
v 0.2 2 -1.4
v 0.6 2 -1.4
v 0.6 2.4 1.4
v 1 2.4 1.4
v 0.6 2.4 1.3
v 1 2.4 1.3
v 0.6 2.4 -1.3
v 1 2.4 -1.3
v 0.6 2.4 -1.4
v 1 2.4 -1.4
v 1 2.8 1.4
v 1.4 2.8 1.4
v 1 2.8 1.3
v 1.4 2.8 1.3
v 1 2.8 -1.3
v 1.4 2.8 -1.3
v 1 2.8 -1.4
v 1.4 2.8 -1.4

# faces
f 5/2/1 2/2/1 1/2/1
f 6/1/1 3/1/1 2/1/1
f 6/2/1 2/2/1 5/2/1
f 7/2/1 4/2/1 3/2/1
f 7/1/1 3/1/1 6/1/1
f 8/2/1 4/2/1 7/2/1
f 13/2/1 10/2/1 9/2/1
f 14/1/1 11/1/1 10/1/1
f 14/2/1 10/2/1 13/2/1
f 15/2/1 12/2/1 11/2/1
f 15/1/1 11/1/1 14/1/1
f 16/2/1 12/2/1 15/2/1
f 21/2/1 18/2/1 17/2/1
f 22/1/1 19/1/1 18/1/1
f 22/2/1 18/2/1 21/2/1
f 23/2/1 20/2/1 19/2/1
f 23/1/1 19/1/1 22/1/1
f 24/2/1 20/2/1 23/2/1
f 29/2/1 26/2/1 25/2/1
f 30/1/1 27/1/1 26/1/1
f 30/2/1 26/2/1 29/2/1
f 31/2/1 28/2/1 27/2/1
f 31/1/1 27/1/1 30/1/1
f 32/2/1 28/2/1 31/2/1
f 37/2/1 34/2/1 33/2/1
f 38/1/1 35/1/1 34/1/1
f 38/2/1 34/2/1 37/2/1
f 39/2/1 36/2/1 35/2/1
f 39/1/1 35/1/1 38/1/1
f 40/2/1 36/2/1 39/2/1
f 45/2/1 42/2/1 41/2/1
f 46/1/1 43/1/1 42/1/1
f 46/2/1 42/2/1 45/2/1
f 47/2/1 44/2/1 43/2/1
f 47/1/1 43/1/1 46/1/1
f 48/2/1 44/2/1 47/2/1
f 53/2/1 50/2/1 49/2/1
f 54/1/1 51/1/1 50/1/1
f 54/2/1 50/2/1 53/2/1
f 55/2/1 52/2/1 51/2/1
f 55/1/1 51/1/1 54/1/1
f 56/2/1 52/2/1 55/2/1
f 57/1/2 58/1/2 59/1/2
f 59/1/2 58/1/2 60/1/2
f 60/1/2 58/1/2 61/1/2
f 61/1/2 58/1/2 62/1/2
f 59/2/2 60/2/2 63/2/2
f 60/1/2 61/1/2 64/1/2
f 63/2/2 60/2/2 64/2/2
f 61/2/2 62/2/2 65/2/2
f 64/1/2 61/1/2 65/1/2
f 65/2/2 62/2/2 66/2/2
f 69/2/3 68/2/3 67/2/3
f 70/2/3 68/2/3 69/2/3
f 71/2/3 68/2/3 70/2/3
f 73/1/3 70/1/3 69/1/3
f 73/2/3 72/2/3 71/2/3
f 73/2/3 71/2/3 70/2/3
f 74/2/3 72/2/3 73/2/3
f 75/2/3 72/2/3 74/2/3
f 77/1/3 74/1/3 73/1/3
f 77/2/3 76/2/3 75/2/3
f 77/2/3 75/2/3 74/2/3
f 78/2/3 76/2/3 77/2/3
f 79/2/3 76/2/3 78/2/3
f 81/1/3 78/1/3 77/1/3
f 81/2/3 80/2/3 79/2/3
f 81/2/3 79/2/3 78/2/3
f 82/2/3 80/2/3 81/2/3
f 83/2/3 80/2/3 82/2/3
f 85/1/3 82/1/3 81/1/3
f 85/2/3 84/2/3 83/2/3
f 85/2/3 83/2/3 82/2/3
f 86/2/3 84/2/3 85/2/3
f 87/2/3 84/2/3 86/2/3
f 89/1/3 86/1/3 85/1/3
f 89/2/3 88/2/3 87/2/3
f 89/2/3 87/2/3 86/2/3
f 90/2/3 88/2/3 89/2/3
f 91/2/3 88/2/3 90/2/3
f 93/1/3 90/1/3 89/1/3
f 93/2/3 92/2/3 91/2/3
f 93/2/3 91/2/3 90/2/3
f 94/2/3 92/2/3 93/2/3
f 95/1/3 73/1/3 69/1/3
f 95/1/3 77/1/3 73/1/3
f 95/1/3 94/1/3 93/1/3
f 95/1/3 93/1/3 89/1/3
f 95/1/3 89/1/3 85/1/3
f 95/1/3 85/1/3 81/1/3
f 95/1/3 81/1/3 77/1/3
f 96/2/3 92/2/3 94/2/3
f 96/1/3 94/1/3 95/1/3
f 97/2/3 92/2/3 96/2/3
f 98/2/4 99/2/4 100/2/4
f 100/2/4 99/2/4 101/2/4
f 101/2/4 99/2/4 102/2/4
f 100/1/4 101/1/4 104/1/4
f 102/2/4 103/2/4 104/2/4
f 101/2/4 102/2/4 104/2/4
f 104/2/4 103/2/4 105/2/4
f 105/2/4 103/2/4 106/2/4
f 104/1/4 105/1/4 108/1/4
f 106/2/4 107/2/4 108/2/4
f 105/2/4 106/2/4 108/2/4
f 108/2/4 107/2/4 109/2/4
f 109/2/4 107/2/4 110/2/4
f 108/1/4 109/1/4 112/1/4
f 110/2/4 111/2/4 112/2/4
f 109/2/4 110/2/4 112/2/4
f 112/2/4 111/2/4 113/2/4
f 113/2/4 111/2/4 114/2/4
f 112/1/4 113/1/4 116/1/4
f 114/2/4 115/2/4 116/2/4
f 113/2/4 114/2/4 116/2/4
f 116/2/4 115/2/4 117/2/4
f 117/2/4 115/2/4 118/2/4
f 116/1/4 117/1/4 120/1/4
f 118/2/4 119/2/4 120/2/4
f 117/2/4 118/2/4 120/2/4
f 120/2/4 119/2/4 121/2/4
f 121/2/4 119/2/4 122/2/4
f 120/1/4 121/1/4 124/1/4
f 122/2/4 123/2/4 124/2/4
f 121/2/4 122/2/4 124/2/4
f 124/2/4 123/2/4 125/2/4
f 100/1/4 104/1/4 126/1/4
f 104/1/4 108/1/4 126/1/4
f 124/1/4 125/1/4 126/1/4
f 120/1/4 124/1/4 126/1/4
f 116/1/4 120/1/4 126/1/4
f 112/1/4 116/1/4 126/1/4
f 108/1/4 112/1/4 126/1/4
f 125/2/4 123/2/4 127/2/4
f 126/1/4 125/1/4 127/1/4
f 127/2/4 123/2/4 128/2/4
f 132/2/5 130/2/5 129/2/5
f 133/1/5 131/1/5 130/1/5
f 133/2/5 130/2/5 132/2/5
f 134/1/5 133/1/5 132/1/5
f 135/1/5 131/1/5 133/1/5
f 135/1/5 133/1/5 134/1/5
f 136/2/5 135/2/5 134/2/5
f 137/1/5 131/1/5 135/1/5
f 137/2/5 135/2/5 136/2/5
f 138/1/5 131/1/5 137/1/5
f 139/2/6 140/2/6 141/2/6
f 141/2/6 140/2/6 142/2/6
f 141/1/6 142/1/6 143/1/6
f 143/1/6 142/1/6 144/1/6
f 143/2/6 144/2/6 145/2/6
f 145/2/6 144/2/6 146/2/6
f 147/2/6 148/2/6 149/2/6
f 149/2/6 148/2/6 150/2/6
f 149/1/6 150/1/6 151/1/6
f 151/1/6 150/1/6 152/1/6
f 151/2/6 152/2/6 153/2/6
f 153/2/6 152/2/6 154/2/6
f 155/2/6 156/2/6 157/2/6
f 157/2/6 156/2/6 158/2/6
f 157/1/6 158/1/6 159/1/6
f 159/1/6 158/1/6 160/1/6
f 159/2/6 160/2/6 161/2/6
f 161/2/6 160/2/6 162/2/6
f 163/2/6 164/2/6 165/2/6
f 165/2/6 164/2/6 166/2/6
f 165/1/6 166/1/6 167/1/6
f 167/1/6 166/1/6 168/1/6
f 167/2/6 168/2/6 169/2/6
f 169/2/6 168/2/6 170/2/6
f 171/2/6 172/2/6 173/2/6
f 173/2/6 172/2/6 174/2/6
f 173/1/6 174/1/6 175/1/6
f 175/1/6 174/1/6 176/1/6
f 175/2/6 176/2/6 177/2/6
f 177/2/6 176/2/6 178/2/6
f 179/2/6 180/2/6 181/2/6
f 181/2/6 180/2/6 182/2/6
f 181/1/6 182/1/6 183/1/6
f 183/1/6 182/1/6 184/1/6
f 183/2/6 184/2/6 185/2/6
f 185/2/6 184/2/6 186/2/6
f 187/2/6 188/2/6 189/2/6
f 189/2/6 188/2/6 190/2/6
f 189/1/6 190/1/6 191/1/6
f 191/1/6 190/1/6 192/1/6
f 191/2/6 192/2/6 193/2/6
f 193/2/6 192/2/6 194/2/6
